PathFileType  4	(X/Y/Z) C:\Users\antoi\Documents\MyRepositories\mobilecap\ResultsAnalysis
DataRate	CameraRate	NumFrames	NumMarkers	Units	OrigDataRate	OrigDataStartFrame	OrigNumFrames
100.0	100.0	5	55	mm	100.0	1	704
Frame#	Time	r_knee			r_shank_antsup			r_ankle			r_calc			r_5meta			r_toe			L_knee			L_shank_antsup			L_ankle			L_calc			L_5meta			L_toe			r_mknee			r_mankle			L_mknee			L_mankle			r_sh2			r_sh3			r_sh4			L_sh2			L_sh3			r_thigh1			r_thigh2			r_thigh3			r_thigh4			r_thigh5			L_thigh1			L_thigh2			L_thigh3			L_thigh4			r.ASIS			r.PSIS			L.ASIS			L.PSIS			C7			R_Shoulder			L_Shoulder			R_Sternum			L_Sternum			R_humerus			R_elbow_med			R_elbow_lat			R_forearm			R_wrist_radius			R_wrist_ulna			L_humerus			L_elbow_med			L_elbow_lat			L_forearm			L_wrist_radius			L_wrist_ulna			R_HJC			L_HJC			R_HJC_reg			L_HJC_reg			
		X1	Y1	Z1	X2	Y2	Z2	X3	Y3	Z3	X4	Y4	Z4	X5	Y5	Z5	X6	Y6	Z6	X7	Y7	Z7	X8	Y8	Z8	X9	Y9	Z9	X10	Y10	Z10	X11	Y11	Z11	X12	Y12	Z12	X13	Y13	Z13	X14	Y14	Z14	X15	Y15	Z15	X16	Y16	Z16	X17	Y17	Z17	X18	Y18	Z18	X19	Y19	Z19	X20	Y20	Z20	X21	Y21	Z21	X22	Y22	Z22	X23	Y23	Z23	X24	Y24	Z24	X25	Y25	Z25	X26	Y26	Z26	X27	Y27	Z27	X28	Y28	Z28	X29	Y29	Z29	X30	Y30	Z30	X31	Y31	Z31	X32	Y32	Z32	X33	Y33	Z33	X34	Y34	Z34	X35	Y35	Z35	X36	Y36	Z36	X37	Y37	Z37	X38	Y38	Z38	X39	Y39	Z39	X40	Y40	Z40	X41	Y41	Z41	X42	Y42	Z42	X43	Y43	Z43	X44	Y44	Z44	X45	Y45	Z45	X46	Y46	Z46	X47	Y47	Z47	X48	Y48	Z48	X49	Y49	Z49	X50	Y50	Z50	X51	Y51	Z51	X52	Y52	Z52	X53	Y53	Z53	X54	Y54	Z54	X55	Y55	Z55	

1	0.00000000	-213.78757	500.47133	-441.56569	-182.45096	457.58150	-447.52247	-262.14437	95.97197	-469.84573	-317.83871	58.97789	-523.01110	-142.56659	40.77583	-425.87762	-96.07158	60.67673	-477.89509	-209.57309	497.86880	-784.02021	-193.83456	415.61163	-795.74964	-262.37546	98.18425	-752.15924	-322.71542	57.57885	-699.20166	-145.68642	41.47902	-781.69434	-101.08386	59.16020	-728.89527	-222.47550	489.37184	-566.09961	-227.68411	108.99464	-547.25073	-209.82306	486.04977	-657.94055	-232.17824	110.79639	-672.11157	-190.38368	342.80778	-458.62374	-251.58119	458.44102	-411.89798	-258.31841	341.87030	-409.93631	-280.33945	432.07664	-807.43099	-290.36596	309.83505	-803.17476	-81.47857	784.34741	-507.21172	-90.44599	673.30957	-494.75702	-118.32380	660.82890	-433.08836	-146.23537	801.89526	-415.94168	-162.02330	687.56737	-407.31760	-123.90237	821.69269	-788.63585	-136.85001	677.64001	-799.10072	-236.90935	827.47479	-786.23645	-249.19608	688.55364	-781.28504	-86.47011	970.16732	-483.78558	-275.57149	1000.43360	-561.17139	-84.35554	957.51617	-722.43042	-276.02108	999.66433	-659.89568	-262.21268	1457.79394	-618.24731	-200.81006	1430.37024	-453.04712	-213.10111	1423.73877	-777.75310	-134.16220	1384.17347	-598.91916	-134.75365	1382.80249	-637.28943	-189.86598	1194.81299	-362.26337	-232.68365	1102.04136	-401.96103	-217.49405	1106.93749	-343.56095	-165.59158	981.85561	-298.04753	-124.31115	882.79155	-289.81737	-166.90220	879.88380	-276.11394	-216.40833	1196.05103	-869.93683	-222.07979	1091.37744	-814.72803	-238.46139	1096.27367	-871.98413	-194.55923	977.50513	-936.05971	-146.45854	880.45246	-959.66926	-186.87378	869.64351	-952.25760	-159.43897	886.92833	-517.94815	-170.07605	888.26767	-708.31788	-154.05581	892.11404	-516.06652	-154.77410	890.88502	-673.79303	
2	0.01000000	-213.69270	500.57087	-441.52458	-182.49521	457.54065	-447.55645	-262.12910	95.96254	-469.85721	-317.89916	58.98393	-523.08039	-142.58826	40.77369	-425.88856	-96.07060	60.68102	-477.88566	-209.55653	497.86940	-784.03297	-193.86936	415.64650	-795.85928	-262.41683	98.22888	-752.16932	-322.69626	57.58327	-699.15260	-145.61308	41.48290	-781.76972	-101.06600	59.18224	-728.88233	-222.45897	489.36182	-566.10249	-227.68731	109.00359	-547.24779	-209.82309	486.04635	-657.94167	-232.17023	110.83074	-672.16303	-190.34401	342.79775	-458.57585	-251.55710	458.59227	-411.92787	-258.28773	341.92674	-409.83782	-280.35711	432.09500	-807.45633	-290.37876	309.85962	-803.14966	-81.45141	784.34460	-507.21515	-90.43738	673.32658	-494.86246	-118.28899	660.85395	-433.11349	-146.20769	801.89089	-415.95870	-162.11431	687.52581	-407.33862	-123.97292	821.59883	-788.73807	-137.45963	677.76538	-798.69403	-236.87678	827.49822	-786.25414	-249.15086	688.54812	-781.31999	-86.43385	970.19004	-483.83938	-275.52131	1000.39136	-561.12426	-84.33085	957.50545	-722.43972	-276.06447	999.69571	-659.83552	-262.21240	1457.78313	-618.22825	-200.84394	1430.31303	-453.03151	-213.09934	1423.77366	-777.73356	-134.16006	1384.14319	-598.90258	-134.74139	1382.78005	-637.24858	-189.78467	1194.77732	-362.29978	-232.64323	1101.94355	-401.94697	-217.33909	1106.80041	-343.63329	-165.41979	981.79095	-298.18483	-124.10029	882.59318	-290.08136	-166.62831	879.81874	-276.43195	-216.36585	1196.07598	-869.95304	-221.98578	1091.36175	-814.79431	-238.42199	1096.27892	-871.99293	-194.47552	977.55133	-936.12738	-146.37698	880.50028	-959.71749	-186.70703	869.72323	-952.54429	-159.38480	886.92994	-517.94457	-170.08337	888.26959	-708.31086	-153.90562	892.03030	-516.10062	-154.77336	890.91895	-673.79900	
3	0.02000000	-213.66583	500.58834	-441.54183	-182.47118	457.53942	-447.58241	-262.10800	95.97525	-469.86366	-317.88798	58.97795	-523.05674	-142.59782	40.80507	-425.90779	-96.09087	60.64723	-477.89890	-209.54878	497.87104	-784.04376	-193.88250	415.66038	-795.90209	-262.41425	98.21328	-752.16540	-322.69779	57.59654	-699.16655	-145.59993	41.49020	-781.79162	-101.05925	59.18221	-728.86818	-222.45881	489.37956	-566.11001	-227.68233	109.01508	-547.24601	-209.81994	486.04406	-657.95208	-232.15955	110.87394	-672.21672	-190.31079	342.78194	-458.58606	-251.53359	458.64406	-411.93849	-258.27237	341.98198	-409.85791	-280.35893	432.09879	-807.46753	-290.37185	309.87133	-803.15271	-81.39164	784.34078	-507.22414	-90.41875	673.34195	-495.04632	-118.25963	660.86353	-433.13923	-146.17092	801.89022	-415.99049	-162.09987	687.54525	-407.36302	-123.99487	821.56852	-788.77572	-137.65560	677.81538	-798.56212	-236.85264	827.49365	-786.26275	-249.14004	688.55047	-781.33086	-86.37282	970.18590	-483.86108	-275.49388	1000.39852	-561.15208	-84.29547	957.49313	-722.46003	-276.02673	999.70903	-659.86442	-262.22020	1457.76581	-618.22061	-200.88812	1430.25132	-453.03657	-213.09563	1423.78499	-777.71858	-134.16176	1384.11146	-598.88454	-134.72161	1382.74849	-637.22187	-189.69407	1194.71872	-362.39687	-232.54423	1101.88359	-401.94560	-217.22567	1106.70130	-343.73671	-165.27237	981.74196	-298.28221	-123.93927	882.45109	-290.28874	-166.41236	879.66490	-276.65109	-216.30126	1196.10634	-869.99594	-221.85060	1091.35438	-814.89790	-238.36177	1096.28765	-872.00724	-194.36955	977.61283	-936.23385	-146.27713	880.54006	-959.77301	-186.60565	869.75608	-952.71836	-159.35057	886.93185	-517.96681	-170.05275	888.26668	-708.33293	-153.87081	892.01759	-516.13360	-154.72208	890.91609	-673.83137	
4	0.03000000	-213.66799	500.57106	-441.58181	-182.40374	457.57455	-447.59383	-262.09403	96.00317	-469.85761	-317.84205	58.96872	-522.99883	-142.59685	40.84041	-425.91120	-96.12091	60.59185	-477.94323	-209.55201	497.87222	-784.05053	-193.88306	415.64641	-795.88929	-262.40530	98.19602	-752.15929	-322.70667	57.60623	-699.20133	-145.64633	41.52009	-781.77314	-101.06292	59.16958	-728.86337	-222.45812	489.38775	-566.11623	-227.67620	109.01965	-547.24627	-209.81606	486.04627	-657.96102	-232.16101	110.87926	-672.21331	-190.27253	342.79270	-458.64830	-251.55472	458.64936	-411.94699	-258.29387	341.99777	-409.97261	-280.35936	432.09526	-807.48206	-290.36020	309.86879	-803.16691	-81.31865	784.32587	-507.25916	-90.36863	673.34654	-495.20976	-118.23144	660.86486	-433.17563	-146.12882	801.88924	-416.04826	-161.99888	687.60390	-407.37589	-123.95435	821.60539	-788.81778	-137.58948	677.79844	-798.59900	-236.83855	827.47244	-786.26377	-249.14473	688.56043	-781.32656	-86.30678	970.18160	-483.87147	-275.45114	1000.42140	-561.20693	-84.25217	957.50520	-722.52515	-275.97016	999.70427	-659.92235	-262.23367	1457.74949	-618.22790	-200.92555	1430.21002	-453.03664	-213.09095	1423.77671	-777.71213	-134.16664	1384.08991	-598.86729	-134.70984	1382.73007	-637.23099	-189.62012	1194.63704	-362.53790	-232.45035	1101.89781	-401.96753	-217.14283	1106.64915	-343.80848	-165.11041	981.68848	-298.35237	-123.81502	882.37832	-290.45778	-166.18566	879.52526	-276.77887	-216.22037	1196.13878	-870.07364	-221.73536	1091.33482	-814.99363	-238.27637	1096.30044	-872.06383	-194.25311	977.66345	-936.38860	-146.16377	880.57645	-959.85916	-186.53811	869.75443	-952.77209	-159.30272	886.93672	-518.01457	-170.00065	888.27413	-708.38091	-153.84857	892.04577	-516.14309	-154.67793	890.89989	-673.87600	
5	0.04000000	-213.64162	500.59778	-441.58047	-182.35041	457.60238	-447.59284	-262.08715	96.02047	-469.84961	-317.82430	58.96595	-522.99658	-142.59220	40.85496	-425.91217	-96.11544	60.58503	-477.96632	-209.56508	497.86599	-784.05198	-193.88985	415.62799	-795.88305	-262.41615	98.21573	-752.16197	-322.71098	57.61197	-699.21637	-145.67697	41.54880	-781.76211	-101.06700	59.16569	-728.87024	-222.42516	489.32865	-566.11403	-227.67648	109.01425	-547.24869	-209.82694	486.06196	-657.94695	-232.16735	110.86311	-672.18532	-190.22526	342.82811	-458.70094	-251.57936	458.66540	-411.95288	-258.30259	341.94219	-410.05832	-280.37190	432.09433	-807.50470	-290.36718	309.86559	-803.16268	-81.25397	784.30478	-507.32682	-90.30649	673.35046	-495.26504	-118.19536	660.86444	-433.22323	-146.06771	801.89648	-416.13901	-161.91419	687.65685	-407.35827	-123.88552	821.65870	-788.90687	-137.59335	677.73579	-798.61390	-236.83515	827.46246	-786.26195	-249.14210	688.56486	-781.32273	-86.25932	970.19976	-483.91865	-275.36339	1000.40602	-561.20525	-84.21160	957.54519	-722.61525	-275.93999	999.70864	-659.94185	-262.24114	1457.73693	-618.24110	-200.94041	1430.19547	-453.01726	-213.08671	1423.76719	-777.70989	-134.16726	1384.08124	-598.85533	-134.70798	1382.72558	-637.25079	-189.57536	1194.55429	-362.64000	-232.40247	1101.92552	-401.97831	-217.04562	1106.60310	-343.83169	-164.91911	981.61699	-298.42330	-123.64178	882.34487	-290.59591	-165.91979	879.51037	-276.85530	-216.14427	1196.16267	-870.15903	-221.68434	1091.30293	-815.04212	-238.18873	1096.30758	-872.15582	-194.13258	977.70618	-936.57029	-146.05071	880.63673	-959.99187	-186.44442	869.74476	-952.79805	-159.21684	886.94048	-518.07013	-169.95402	888.30098	-708.43410	-153.73730	892.03178	-516.17252	-154.65862	890.91753	-673.93262	
